P2
9 9
255
0 0 0 255 255 255 0 0 0
0 0 0 255 255 255 0 0 0
0 0 0 255 255 255 0 0 0
255 255 255 220 220 220 0 0 0
255 255 255 220 220 220 0 0 0
255 255 255 220 220 220 0 0 0
0 0 0 220 220 220 220 220 220 
0 0 0 220 220 220 220 220 220 
0 0 0 220 220 220 220 220 220 
